<?xml version="1.0" standalone="no"?>
<!DOCTYPE svg PUBLIC "-//W3C//DTD SVG 20010904//EN"
 "http://www.w3.org/TR/2001/REC-SVG-20010904/DTD/svg10.dtd">
<svg version="1.0" xmlns="http://www.w3.org/2000/svg"
 width="1400.000000pt" height="650.000000pt" viewBox="0 0 1400.000000 650.000000"
 preserveAspectRatio="xMidYMid meet">

<g transform="translate(0.000000,650.000000) scale(0.100000,-0.100000)"
fill="#000000" stroke="none">
<path d="M6296 4525 c-5 -13 -42 -15 -251 -15 -201 0 -245 -2 -245 -14 0 -7 7
-19 15 -26 13 -11 15 -59 15 -325 0 -269 -2 -314 -15 -319 -8 -3 -15 -12 -15
-21 0 -13 31 -15 239 -15 200 0 242 -3 255 -15 8 -8 22 -15 30 -15 13 0 16 13
16 70 0 62 -2 70 -19 70 -10 0 -21 -7 -25 -15 -4 -13 -35 -15 -191 -15 l-186
0 3 123 3 122 111 3 c90 2 115 0 127 -13 9 -8 23 -15 31 -15 13 0 16 13 16 70
0 62 -2 70 -19 70 -10 0 -21 -7 -25 -15 -4 -12 -28 -15 -126 -15 l-121 0 3
113 3 112 176 3 c148 2 178 0 189 -13 7 -8 21 -15 31 -15 17 0 19 8 19 70 0
62 -2 70 -19 70 -10 0 -21 -7 -25 -15z"/>
<path d="M7873 4510 c-62 -13 -119 -46 -150 -86 -37 -49 -45 -159 -15 -214 33
-61 83 -80 243 -93 162 -12 198 -27 213 -88 28 -113 -129 -203 -269 -155 -77
26 -145 74 -145 102 0 45 -34 28 -63 -31 -33 -67 -34 -85 -6 -85 12 0 55 -17
97 -37 69 -35 83 -38 178 -41 63 -3 117 0 141 8 136 43 202 188 141 310 -34
67 -83 88 -228 96 -143 7 -183 17 -209 51 -58 72 10 167 134 187 83 13 225
-43 225 -90 0 -45 30 -26 60 39 37 77 38 91 5 84 -15 -2 -52 6 -86 20 -67 27
-195 38 -266 23z"/>
<path d="M4740 4496 c0 -7 7 -19 15 -26 13 -11 15 -59 15 -325 0 -269 -2 -314
-15 -319 -8 -3 -15 -12 -15 -21 0 -12 14 -15 70 -15 39 0 70 4 70 9 0 5 -7 22
-15 37 -12 23 -15 74 -15 254 0 125 4 220 9 215 4 -6 55 -124 111 -263 74
-181 108 -252 118 -250 9 2 58 108 121 260 l106 256 3 -236 c2 -203 0 -237
-13 -244 -8 -5 -15 -16 -15 -23 0 -12 16 -15 75 -15 57 0 75 3 75 14 0 7 -7
19 -15 26 -13 11 -15 59 -15 322 0 265 2 309 15 314 8 4 15 15 15 25 0 17 -8
19 -90 19 -92 0 -100 -4 -79 -38 9 -14 -7 -61 -82 -245 -51 -125 -96 -224
-100 -220 -4 5 -49 107 -99 228 -72 173 -89 224 -80 237 20 34 11 38 -80 38
-70 0 -90 -3 -90 -14z"/>
<path d="M6690 4496 c0 -7 7 -19 15 -26 13 -11 15 -60 15 -327 0 -270 -2 -314
-15 -319 -8 -4 -15 -12 -15 -20 0 -11 17 -14 70 -14 39 0 70 4 70 9 0 5 -7 22
-15 37 -12 24 -15 76 -15 277 0 136 3 247 8 246 4 0 90 -117 191 -260 136
-193 181 -263 172 -272 -28 -28 -12 -37 69 -37 85 0 94 6 65 44 -22 30 -22
607 0 630 8 8 15 22 15 30 0 13 -13 16 -70 16 -73 0 -84 -8 -55 -40 13 -14 15
-54 13 -257 l-3 -240 -167 237 c-152 215 -167 241 -162 269 l7 31 -97 0 c-75
0 -96 -3 -96 -14z"/>
<path d="M8790 4500 c0 -6 5 -18 11 -28 8 -13 -14 -81 -106 -322 -67 -175
-124 -312 -136 -322 -35 -30 -23 -38 56 -38 75 0 92 9 65 36 -6 6 0 35 19 84
l28 75 143 0 143 0 29 -70 c22 -54 27 -74 19 -87 -21 -33 -12 -38 69 -38 84 0
97 8 60 38 -12 10 -66 138 -136 322 -92 243 -113 309 -105 322 21 34 12 38
-74 38 -51 0 -85 -4 -85 -10z m139 -284 c29 -76 50 -140 48 -143 -3 -2 -52 -2
-110 -1 l-105 3 47 125 c26 69 50 134 54 144 4 10 9 17 11 15 2 -2 27 -66 55
-143z"/>
<path d="M6506 1336 c3 -7 -6 -37 -19 -65 l-25 -51 34 0 c22 0 33 4 29 10 -7
12 49 106 68 114 7 2 -11 5 -40 5 -41 1 -51 -2 -47 -13z"/>
<path d="M6837 1170 c-59 -15 -91 -36 -135 -85 -91 -104 -80 -261 26 -357 52
-47 101 -63 192 -62 80 1 127 15 192 60 20 14 42 23 47 19 18 -11 12 5 -16 46
-28 38 -47 52 -37 25 3 -8 -7 -26 -23 -41 -128 -123 -340 -64 -374 105 -29
138 68 249 216 250 71 0 161 -37 173 -71 8 -20 11 -18 35 25 17 30 22 46 13
43 -8 -3 -42 6 -75 19 -69 28 -174 39 -234 24z"/>
<path d="M7453 1170 c-149 -31 -236 -183 -191 -332 6 -22 31 -62 55 -88 58
-64 112 -85 223 -85 73 0 93 4 142 28 91 45 138 122 138 229 -1 105 -55 189
-148 230 -49 22 -158 31 -219 18z m160 -51 c21 -5 57 -29 81 -52 138 -133 43
-357 -151 -357 -75 0 -121 18 -168 64 -84 84 -83 208 1 292 60 60 144 79 237
53z"/>
<path d="M5054 1155 c19 -15 196 -414 196 -443 0 -10 -5 -23 -12 -30 -9 -9 5
-12 66 -12 70 0 76 1 62 16 -9 8 -16 17 -16 20 0 21 183 439 197 450 16 12 10
13 -47 13 -49 0 -61 -2 -47 -10 9 -5 17 -14 17 -19 0 -14 -149 -373 -158 -382
-8 -8 -162 350 -162 375 0 7 5 18 12 25 9 9 -3 12 -57 12 -62 -1 -68 -2 -51
-15z"/>
<path d="M5623 1152 c15 -16 17 -47 17 -232 0 -185 -2 -216 -17 -232 -15 -17
-13 -18 48 -18 48 1 60 3 47 11 -16 9 -18 31 -18 239 0 208 2 230 18 239 13 8
1 10 -47 11 -61 0 -63 -1 -48 -18z"/>
<path d="M5843 1152 c15 -16 17 -47 17 -232 0 -185 -2 -216 -17 -232 -15 -17
-14 -18 42 -18 50 0 56 2 42 13 -16 11 -17 33 -15 208 l3 195 155 -182 c85
-101 157 -191 158 -200 2 -9 -2 -20 -10 -25 -8 -5 14 -9 57 -9 60 1 68 2 53
14 -16 12 -18 36 -18 236 0 200 2 224 18 236 15 12 9 13 -42 14 -50 0 -57 -2
-43 -13 16 -11 17 -32 15 -196 l-3 -184 -126 149 c-170 202 -175 210 -159 229
11 13 4 15 -65 15 -75 0 -77 -1 -62 -18z"/>
<path d="M6453 1152 c15 -16 17 -47 17 -232 0 -185 -2 -216 -17 -232 -15 -17
-13 -18 48 -18 48 1 60 3 47 11 -16 9 -18 31 -18 239 0 208 2 230 18 239 13 8
1 10 -47 11 -61 0 -63 -1 -48 -18z"/>
<path d="M7933 1152 c15 -16 17 -47 17 -232 0 -185 -2 -216 -17 -232 -16 -17
-9 -18 186 -18 170 0 203 -2 207 -15 4 -8 10 -15 15 -15 5 0 9 7 9 15 0 12 13
15 60 15 56 0 59 1 48 19 -9 15 -7 28 9 67 l19 49 129 0 129 0 22 -55 c16 -39
19 -59 12 -67 -8 -10 3 -13 52 -13 l63 0 -24 24 c-13 13 -64 118 -113 232 -73
171 -87 211 -77 226 10 17 6 18 -59 18 -66 0 -70 -1 -58 -19 10 -16 -2 -50
-76 -223 -92 -213 -110 -248 -126 -248 -6 0 -10 16 -10 35 0 36 -13 47 -24 20
-4 -12 -32 -15 -161 -15 l-155 0 0 215 c0 193 2 215 18 224 13 8 1 10 -47 11
-61 0 -63 -1 -48 -18z m740 -179 l46 -113 -104 0 -104 0 45 108 c25 59 48 113
51 120 8 20 15 7 66 -115z"/>
<path d="M1780 880 c0 -7 527 -10 1560 -10 1033 0 1560 3 1560 10 0 7 -527 10
-1560 10 -1033 0 -1560 -3 -1560 -10z"/>
<path d="M9020 880 c0 -7 527 -10 1560 -10 1033 0 1560 3 1560 10 0 7 -527 10
-1560 10 -1033 0 -1560 -3 -1560 -10z"/>
</g>
</svg>
